<svg width="14" height="14" viewBox="0 0 14 14" fill="none" xmlns="http://www.w3.org/2000/svg">
<path d="M7 0C10.8661 0 14 3.1346 14 7C14 10.8654 10.8661 14 7 14C3.1339 14 0 10.8654 0 7C0 3.1346 3.1339 0 7 0ZM7 9.45C6.81435 9.45 6.6363 9.52375 6.50503 9.65503C6.37375 9.7863 6.3 9.96435 6.3 10.15C6.3 10.3357 6.37375 10.5137 6.50503 10.645C6.6363 10.7763 6.81435 10.85 7 10.85C7.18565 10.85 7.3637 10.7763 7.49497 10.645C7.62625 10.5137 7.7 10.3357 7.7 10.15C7.7 9.96435 7.62625 9.7863 7.49497 9.65503C7.3637 9.52375 7.18565 9.45 7 9.45ZM7 3.325C6.48946 3.325 5.99983 3.52781 5.63882 3.88882C5.27781 4.24983 5.075 4.73946 5.075 5.25C5.07504 5.38302 5.12557 5.51106 5.21638 5.60825C5.30719 5.70545 5.43151 5.76455 5.56422 5.77362C5.69692 5.78268 5.82812 5.74104 5.93131 5.6571C6.03449 5.57316 6.10197 5.45318 6.1201 5.3214L6.125 5.25C6.125 5.01794 6.21719 4.79538 6.38128 4.63128C6.54538 4.46719 6.76794 4.375 7 4.375C7.23206 4.375 7.45462 4.46719 7.61872 4.63128C7.78281 4.79538 7.875 5.01794 7.875 5.25C7.875 5.6273 7.7805 5.8135 7.4235 6.1824L7.329 6.279C6.7144 6.8936 6.475 7.2919 6.475 8.05C6.475 8.18924 6.53031 8.32277 6.62877 8.42123C6.72723 8.51969 6.86076 8.575 7 8.575C7.13924 8.575 7.27277 8.51969 7.37123 8.42123C7.46969 8.32277 7.525 8.18924 7.525 8.05C7.525 7.6727 7.6195 7.4865 7.9765 7.1176L8.071 7.021C8.6856 6.4064 8.925 6.0081 8.925 5.25C8.925 4.73946 8.72219 4.24983 8.36118 3.88882C8.00017 3.52781 7.51054 3.325 7 3.325Z" fill="#E95750"/>
</svg>
