<svg width="26" height="26" viewBox="0 0 26 26" fill="none" xmlns="http://www.w3.org/2000/svg">
<path d="M24.04 3.16H19V1.24C19 1.108 18.892 1 18.76 1H17.08C16.948 1 16.84 1.108 16.84 1.24V3.16H9.16V1.24C9.16 1.108 9.052 1 8.92 1H7.24C7.108 1 7 1.108 7 1.24V3.16H1.96C1.429 3.16 1 3.589 1 4.12V24.04C1 24.571 1.429 25 1.96 25H24.04C24.571 25 25 24.571 25 24.04V4.12C25 3.589 24.571 3.16 24.04 3.16ZM22.84 22.84H3.16V11.44H22.84V22.84ZM3.16 9.4V5.32H7V6.76C7 6.892 7.108 7 7.24 7H8.92C9.052 7 9.16 6.892 9.16 6.76V5.32H16.84V6.76C16.84 6.892 16.948 7 17.08 7H18.76C18.892 7 19 6.892 19 6.76V5.32H22.84V9.4H3.16Z" stroke="#020202" stroke-linejoin="round"/>
</svg>
