<svg width="20" height="20" viewBox="0 0 20 20" fill="none" xmlns="http://www.w3.org/2000/svg">
<path d="M18.8896 8.00751H14.4448V1.00094C14.4448 0.735474 14.3277 0.480881 14.1193 0.293169C13.9109 0.105455 13.6283 0 13.3336 0H6.66641C6.3717 0 6.08906 0.105455 5.88067 0.293169C5.67228 0.480881 5.55521 0.735474 5.55521 1.00094V8.00751H1.11042C0.901215 8.00783 0.696356 8.06129 0.519358 8.16174C0.34236 8.2622 0.200399 8.40558 0.109777 8.57542C0.0191555 8.74527 -0.0164566 8.93469 0.0070343 9.12194C0.0305233 9.3092 0.11216 9.48668 0.242571 9.63403L9.13215 19.6434C9.55552 20.1189 10.4445 20.1189 10.8678 19.6434L19.7574 9.63403C19.8878 9.48668 19.9695 9.3092 19.993 9.12194C20.0165 8.93469 19.9808 8.74527 19.8902 8.57542C19.7996 8.40558 19.6576 8.2622 19.4806 8.16174C19.3036 8.06129 19.0988 8.00783 18.8896 8.00751Z" fill="#D3455B"/>
</svg>
