<svg width="20" height="20" viewBox="0 0 20 20" fill="none" xmlns="http://www.w3.org/2000/svg">
<path d="M10.8678 19.6434C10.4445 20.1189 9.55552 20.1189 9.13215 19.6434L0.242573 9.63403C0.112161 9.48669 0.0305235 9.3092 0.00703423 9.12194C-0.016455 8.93469 0.0191561 8.74527 0.109778 8.57542C0.200401 8.40558 0.34236 8.2622 0.519358 8.16174C0.696356 8.06129 0.901217 8.00783 1.11042 8.00751H5.55521V1.00094C5.55521 0.735474 5.67228 0.480881 5.88067 0.293168C6.08906 0.105456 6.3717 9.0304e-07 6.66641 9.0304e-07H13.3336C13.6283 9.0304e-07 13.9109 0.105456 14.1193 0.293168C14.3277 0.480881 14.4448 0.735474 14.4448 1.00094V8.00751H18.8896C19.0988 8.00783 19.3036 8.06129 19.4806 8.16174C19.6576 8.2622 19.7996 8.40558 19.8902 8.57542C19.9808 8.74527 20.0165 8.93469 19.993 9.12194C19.9695 9.3092 19.8878 9.48669 19.7574 9.63403L10.8678 19.6434V19.6434ZM13.3336 10.0094H12.2224V2.00188H7.7776V10.0094H3.42282L10 17.4153L16.5772 10.0094H13.3336Z" fill="#7B7B7B"/>
</svg>
