<svg width="14" height="16" viewBox="0 0 14 16" fill="none" xmlns="http://www.w3.org/2000/svg">
<path fill-rule="evenodd" clip-rule="evenodd" d="M8.29992 0.0407753C8.50291 0.0975223 8.68024 0.210354 8.80613 0.36286C8.93202 0.515367 8.99989 0.699595 8.99987 0.888751V5.33307H12.9996C13.1825 5.333 13.362 5.37752 13.5184 5.4618C13.6748 5.54608 13.8022 5.66687 13.8868 5.81105C13.9713 5.95522 14.0097 6.11725 13.9979 6.2795C13.9861 6.44175 13.9244 6.598 13.8196 6.73125L6.82001 15.6199C6.69819 15.775 6.52386 15.8916 6.32238 15.9526C6.12091 16.0135 5.90279 16.0158 5.69978 15.959C5.49677 15.9022 5.31944 15.7892 5.19361 15.6367C5.06777 15.4841 4.99999 15.2998 5.00013 15.1106V10.6663H1.00038C0.817475 10.6663 0.638049 10.6218 0.481632 10.5375C0.325215 10.4532 0.197797 10.3324 0.113247 10.1883C0.0286974 10.0441 -0.00974639 9.88207 0.0020997 9.71982C0.0139458 9.55757 0.075628 9.40132 0.180434 9.26807L7.17999 0.379432C7.30199 0.224581 7.47636 0.10834 7.67776 0.0475984C7.87916 -0.0131433 8.0971 -0.0161109 8.29992 0.0407753Z" fill="#8F9AD8"/>
</svg>
