<svg width="16" height="16" viewBox="0 0 16 16" fill="none" xmlns="http://www.w3.org/2000/svg">
<path d="M7.992 0C3.576 0 0 3.584 0 8C0 12.416 3.576 16 7.992 16C12.416 16 16 12.416 16 8C16 3.584 12.416 0 7.992 0ZM10.576 12.312L8 10.76L5.424 12.312C5.12 12.496 4.744 12.224 4.824 11.88L5.504 8.952L3.24 6.992C2.976 6.76 3.12 6.32 3.472 6.288L6.464 6.032L7.632 3.272C7.768 2.944 8.232 2.944 8.368 3.272L9.536 6.024L12.528 6.28C12.88 6.312 13.024 6.752 12.752 6.984L10.488 8.944L11.168 11.88C11.248 12.224 10.88 12.496 10.576 12.312V12.312Z" fill="#F2D122"/>
</svg>
