<svg width="20" height="15" viewBox="0 0 20 15" fill="none" xmlns="http://www.w3.org/2000/svg">
<path d="M7.65008 1.5162C7.68322 1.50161 7.7195 1.49558 7.75558 1.49867C7.79166 1.50177 7.82639 1.51388 7.85657 1.5339C7.88674 1.55392 7.9114 1.5812 7.92828 1.61324C7.94516 1.64527 7.95372 1.68104 7.95316 1.71725V3.44723C7.95316 3.6462 8.0322 3.83701 8.17289 3.97771C8.31358 4.1184 8.5044 4.19744 8.70337 4.19744C9.70415 4.19744 11.7237 4.20494 13.6547 5.43078C15.1311 6.36703 16.6406 8.07151 17.5483 11.2464C16.0179 9.77147 14.2699 8.97175 12.7395 8.54714C11.7988 8.28732 10.832 8.13332 9.85719 8.08801C9.45815 8.07048 9.05846 8.07449 8.65986 8.10001H8.64035L8.63285 8.10151H8.63135L8.70337 8.84872L8.62835 8.10151C8.44317 8.12012 8.27152 8.2069 8.14675 8.34499C8.02197 8.48307 7.95298 8.66261 7.95316 8.84872V10.5787C7.95316 10.7407 7.78812 10.8428 7.65008 10.7798L1.67243 6.37904C1.65214 6.36399 1.63111 6.34997 1.60941 6.33703C1.57679 6.31742 1.54979 6.28971 1.53105 6.25658C1.51231 6.22345 1.50246 6.18604 1.50246 6.14797C1.50246 6.10991 1.51231 6.0725 1.53105 6.03937C1.54979 6.00624 1.57679 5.97853 1.60941 5.95892C1.63111 5.94599 1.65215 5.93197 1.67243 5.91691L7.65008 1.5162ZM9.45358 9.57792C9.55561 9.57792 9.66814 9.58242 9.78817 9.58692C10.4393 9.61693 11.3396 9.71596 12.3389 9.99354C14.3284 10.5457 16.6841 11.797 18.2505 14.6148C18.3352 14.7669 18.4702 14.8848 18.6323 14.9483C18.7944 15.0118 18.9735 15.017 19.139 14.9629C19.3045 14.9088 19.446 14.7988 19.5393 14.6518C19.6326 14.5048 19.6719 14.33 19.6504 14.1572C18.9542 8.59065 16.8206 5.66184 14.459 4.16443C12.5909 2.9791 10.6674 2.75104 9.45358 2.70752V1.71725C9.45372 1.40827 9.37045 1.10498 9.21257 0.839379C9.05468 0.573782 8.82803 0.355726 8.55653 0.208222C8.28503 0.060717 7.97875 -0.0107671 7.67 0.00131248C7.36125 0.013392 7.06149 0.108587 6.80235 0.276853L0.809691 4.68807C0.561943 4.84272 0.357625 5.05787 0.215975 5.31327C0.0743239 5.56867 0 5.85592 0 6.14797C0 6.44003 0.0743239 6.72728 0.215975 6.98268C0.357625 7.23808 0.561943 7.45323 0.809691 7.60788L6.80235 12.0191C7.06149 12.1874 7.36125 12.2826 7.67 12.2946C7.97875 12.3067 8.28503 12.2352 8.55653 12.0877C8.82803 11.9402 9.05468 11.7222 9.21257 11.4566C9.37045 11.191 9.45372 10.8877 9.45358 10.5787V9.57792V9.57792Z" fill="#1D2D8C"/>
</svg>
