<svg width="28" height="28" viewBox="0 0 28 28" fill="none" xmlns="http://www.w3.org/2000/svg">
<path d="M11.0796 0C14.018 0 16.8362 1.16734 18.914 3.24523C20.9918 5.32311 22.1591 8.14133 22.1591 11.0799C22.1591 13.5082 21.3777 15.7533 20.054 17.5797L27.4785 25.0044C27.7995 25.3208 27.9861 25.7488 27.9992 26.1993C28.0124 26.6498 27.8513 27.088 27.5493 27.4226C27.2474 27.7572 26.8279 27.9624 26.3785 27.9953C25.929 28.0283 25.4841 27.8865 25.1366 27.5995L25.0037 27.4793L17.5792 20.0546C15.69 21.4265 13.4143 22.1636 11.0796 22.1598C8.14108 22.1598 5.32295 20.9925 3.24513 18.9146C1.16731 16.8367 0 14.0185 0 11.0799C0 8.14133 1.16731 5.32311 3.24513 3.24523C5.32295 1.16734 8.14108 4.37882e-08 11.0796 0ZM11.0796 3.49892C9.06902 3.49892 7.14083 4.29763 5.71916 5.71934C4.29749 7.14105 3.49881 9.0693 3.49881 11.0799C3.49881 13.0905 4.29749 15.0188 5.71916 16.4405C7.14083 17.8622 9.06902 18.6609 11.0796 18.6609C13.0901 18.6609 15.0183 17.8622 16.44 16.4405C17.8616 15.0188 18.6603 13.0905 18.6603 11.0799C18.6603 9.0693 17.8616 7.14105 16.44 5.71934C15.0183 4.29763 13.0901 3.49892 11.0796 3.49892Z" fill="#8F9AD8"/>
</svg>
