<svg width="24" height="24" viewBox="0 0 24 24" fill="none" xmlns="http://www.w3.org/2000/svg">
<path d="M12.0121 9.15449C11.3113 9.15449 10.6551 9.42637 10.1582 9.92324C9.66366 10.4201 9.38944 11.0764 9.38944 11.7771C9.38944 12.4779 9.66366 13.1342 10.1582 13.6311C10.6551 14.1256 11.3113 14.3998 12.0121 14.3998C12.7129 14.3998 13.3691 14.1256 13.866 13.6311C14.3605 13.1342 14.6348 12.4779 14.6348 11.7771C14.6348 11.0764 14.3605 10.4201 13.866 9.92324C13.6233 9.67869 13.3345 9.48479 13.0162 9.35282C12.6979 9.22085 12.3566 9.15344 12.0121 9.15449ZM21.6754 14.674L20.1426 13.3639C20.2152 12.9186 20.2527 12.4639 20.2527 12.0115C20.2527 11.5592 20.2152 11.1021 20.1426 10.6592L21.6754 9.34902C21.7912 9.2499 21.874 9.11787 21.913 8.9705C21.9519 8.82314 21.9451 8.66741 21.8933 8.52402L21.8723 8.46309C21.4504 7.28345 20.8183 6.19001 20.0066 5.23574L19.9644 5.18652C19.8659 5.07063 19.7345 4.98732 19.5877 4.94757C19.4408 4.90783 19.2853 4.91351 19.1418 4.96387L17.2387 5.64121C16.5355 5.06465 15.7527 4.60996 14.9043 4.29355L14.5363 2.30371C14.5086 2.15381 14.4358 2.0159 14.3278 1.90832C14.2198 1.80073 14.0816 1.72855 13.9316 1.70137L13.8683 1.68965C12.6496 1.46934 11.3652 1.46934 10.1465 1.68965L10.0832 1.70137C9.93318 1.72855 9.79499 1.80073 9.68699 1.90832C9.57898 2.0159 9.50626 2.15381 9.4785 2.30371L9.10819 4.30293C8.26779 4.62186 7.4849 5.07544 6.79022 5.6459L4.87303 4.96387C4.72952 4.91311 4.57395 4.90722 4.42701 4.94699C4.28006 4.98676 4.1487 5.07031 4.05038 5.18652L4.00819 5.23574C3.19794 6.19103 2.56601 7.2842 2.14257 8.46309L2.12147 8.52402C2.016 8.81699 2.10272 9.14512 2.33944 9.34902L3.891 10.6732C3.81835 11.1139 3.78319 11.5639 3.78319 12.0092C3.78319 12.4592 3.81835 12.9092 3.891 13.3451L2.34413 14.6693C2.22834 14.7685 2.14546 14.9005 2.10653 15.0479C2.06759 15.1952 2.07444 15.351 2.12616 15.4943L2.14725 15.5553C2.57147 16.7342 3.19725 17.824 4.01288 18.7826L4.05506 18.8318C4.15363 18.9477 4.285 19.031 4.43185 19.0708C4.57871 19.1105 4.73416 19.1049 4.87772 19.0545L6.79491 18.3725C7.49335 18.9467 8.27147 19.4014 9.11288 19.7154L9.48319 21.7146C9.51095 21.8645 9.58367 22.0025 9.69167 22.11C9.79968 22.2176 9.93787 22.2898 10.0879 22.317L10.1512 22.3287C11.3819 22.5502 12.6423 22.5502 13.873 22.3287L13.9363 22.317C14.0863 22.2898 14.2245 22.2176 14.3325 22.11C14.4405 22.0025 14.5132 21.8645 14.541 21.7146L14.909 19.7248C15.7574 19.4061 16.5402 18.9537 17.2433 18.3771L19.1465 19.0545C19.29 19.1053 19.4456 19.1111 19.5925 19.0714C19.7394 19.0316 19.8708 18.9481 19.9691 18.8318L20.0113 18.7826C20.8269 17.8193 21.4527 16.7342 21.8769 15.5553L21.898 15.4943C21.9988 15.2037 21.9121 14.8779 21.6754 14.674ZM12.0121 15.8975C9.73631 15.8975 7.89178 14.0529 7.89178 11.7771C7.89178 9.50137 9.73631 7.65684 12.0121 7.65684C14.2879 7.65684 16.1324 9.50137 16.1324 11.7771C16.1324 14.0529 14.2879 15.8975 12.0121 15.8975Z" fill="#1D2D8C"/>
</svg>
