<svg width="20" height="20" viewBox="0 0 20 20" fill="none" xmlns="http://www.w3.org/2000/svg">
<path d="M10.8678 0.356584C10.4445 -0.118861 9.55552 -0.118861 9.13215 0.356584L0.242573 10.366C0.112161 10.5133 0.0305235 10.6908 0.00703423 10.8781C-0.016455 11.0653 0.0191561 11.2547 0.109778 11.4246C0.200401 11.5944 0.34236 11.7378 0.519358 11.8383C0.696356 11.9387 0.901217 11.9922 1.11042 11.9925H5.55521V18.9991C5.55521 19.2645 5.67228 19.5191 5.88067 19.7068C6.08906 19.8945 6.3717 20 6.66641 20H13.3336C13.6283 20 13.9109 19.8945 14.1193 19.7068C14.3277 19.5191 14.4448 19.2645 14.4448 18.9991V11.9925H18.8896C19.0988 11.9922 19.3036 11.9387 19.4806 11.8383C19.6576 11.7378 19.7996 11.5944 19.8902 11.4246C19.9808 11.2547 20.0165 11.0653 19.993 10.8781C19.9695 10.6908 19.8878 10.5133 19.7574 10.366L10.8678 0.356584V0.356584ZM13.3336 9.99062H12.2224V17.9981H7.7776V9.99062H3.42282L10 2.58467L16.5772 9.99062H13.3336Z" fill="#7B7B7B"/>
</svg>
