<svg width="120" height="180" viewBox="0 0 120 180" fill="none" xmlns="http://www.w3.org/2000/svg">
<g filter="url(#filter0_d)">
<path d="M75.6 48.6V132H61.92V95.52H22.68V132H9V48.6H22.68V84.36H61.92V48.6H75.6Z" fill="white"/>
<path d="M75.6 48.6H78.6C78.6 46.9431 77.2569 45.6 75.6 45.6V48.6ZM75.6 132V135C77.2569 135 78.6 133.657 78.6 132H75.6ZM61.92 132H58.92C58.92 133.657 60.2631 135 61.92 135V132ZM61.92 95.52H64.92C64.92 93.8631 63.5769 92.52 61.92 92.52V95.52ZM22.68 95.52V92.52C21.0231 92.52 19.68 93.8631 19.68 95.52H22.68ZM22.68 132V135C24.3369 135 25.68 133.657 25.68 132H22.68ZM9 132H6C6 133.657 7.34315 135 9 135V132ZM9 48.6V45.6C7.34315 45.6 6 46.9431 6 48.6H9ZM22.68 48.6H25.68C25.68 46.9431 24.3369 45.6 22.68 45.6V48.6ZM22.68 84.36H19.68C19.68 86.0169 21.0231 87.36 22.68 87.36V84.36ZM61.92 84.36V87.36C63.5769 87.36 64.92 86.0169 64.92 84.36H61.92ZM61.92 48.6V45.6C60.2631 45.6 58.92 46.9431 58.92 48.6H61.92ZM72.6 48.6V132H78.6V48.6H72.6ZM75.6 129H61.92V135H75.6V129ZM64.92 132V95.52H58.92V132H64.92ZM61.92 92.52H22.68V98.52H61.92V92.52ZM19.68 95.52V132H25.68V95.52H19.68ZM22.68 129H9V135H22.68V129ZM12 132V48.6H6V132H12ZM9 51.6H22.68V45.6H9V51.6ZM19.68 48.6V84.36H25.68V48.6H19.68ZM22.68 87.36H61.92V81.36H22.68V87.36ZM64.92 84.36V48.6H58.92V84.36H64.92ZM61.92 51.6H75.6V45.6H61.92V51.6Z" fill="white"/>
<path d="M112.08 48.6V59.76H76.68V84.36H104.28V95.52H76.68V132H63V48.6H112.08Z" fill="#1D2D8C"/>
<path d="M112.08 48.6H115.08C115.08 46.9431 113.737 45.6 112.08 45.6V48.6ZM112.08 59.76V62.76C113.737 62.76 115.08 61.4168 115.08 59.76H112.08ZM76.68 59.76V56.76C75.0231 56.76 73.68 58.1031 73.68 59.76H76.68ZM76.68 84.36H73.68C73.68 86.0169 75.0231 87.36 76.68 87.36V84.36ZM104.28 84.36H107.28C107.28 82.7031 105.937 81.36 104.28 81.36V84.36ZM104.28 95.52V98.52C105.937 98.52 107.28 97.1768 107.28 95.52H104.28ZM76.68 95.52V92.52C75.0231 92.52 73.68 93.8631 73.68 95.52H76.68ZM76.68 132V135C78.3369 135 79.68 133.657 79.68 132H76.68ZM63 132H60C60 133.657 61.3431 135 63 135V132ZM63 48.6V45.6C61.3431 45.6 60 46.9431 60 48.6H63ZM109.08 48.6V59.76H115.08V48.6H109.08ZM112.08 56.76H76.68V62.76H112.08V56.76ZM73.68 59.76V84.36H79.68V59.76H73.68ZM76.68 87.36H104.28V81.36H76.68V87.36ZM101.28 84.36V95.52H107.28V84.36H101.28ZM104.28 92.52H76.68V98.52H104.28V92.52ZM73.68 95.52V132H79.68V95.52H73.68ZM76.68 129H63V135H76.68V129ZM66 132V48.6H60V132H66ZM63 51.6H112.08V45.6H63V51.6Z" fill="white"/>
</g>
<defs>
<filter id="filter0_d" x="2" y="45.6001" width="117.08" height="97.3999" filterUnits="userSpaceOnUse" color-interpolation-filters="sRGB">
<feFlood flood-opacity="0" result="BackgroundImageFix"/>
<feColorMatrix in="SourceAlpha" type="matrix" values="0 0 0 0 0 0 0 0 0 0 0 0 0 0 0 0 0 0 127 0" result="hardAlpha"/>
<feOffset dy="4"/>
<feGaussianBlur stdDeviation="2"/>
<feComposite in2="hardAlpha" operator="out"/>
<feColorMatrix type="matrix" values="0 0 0 0 0 0 0 0 0 0 0 0 0 0 0 0 0 0 0.25 0"/>
<feBlend mode="normal" in2="BackgroundImageFix" result="effect1_dropShadow"/>
<feBlend mode="normal" in="SourceGraphic" in2="effect1_dropShadow" result="shape"/>
</filter>
</defs>
</svg>
